<svg xmlns="http://www.w3.org/2000/svg" width="131" height="30" fill="none" viewBox="0 0 131 30">
    <path fill="#000" d="M14.76 12.48l-.24.24c-.54.3-1.08.54-1.62.84-.18-.24-.3-.42-.48-.6-1.08-1.08-2.7-.72-3.06.78-.18.78-.18 1.74 0 2.52.42 1.56 2.1 1.86 3.24.66.12-.12.24-.3.42-.54.6.3 1.14.6 1.74.9-.72 1.86-2.64 2.76-4.98 2.4-2.1-.3-3.42-2.04-3.54-4.5-.12-2.28 1.26-4.32 3.24-4.8 2.28-.54 4.38.3 5.28 2.1zM23.64 12.48c-.66.36-1.26.66-1.86 1.02-.12-.06-.18-.06-.24-.12-.6-.78-1.32-1.26-2.34-.9-1.02.36-1.26 1.2-1.32 2.16 0 .54 0 1.08.12 1.56.48 1.62 2.22 1.98 3.36.72.12-.12.24-.3.42-.54.6.3 1.14.6 1.74.9-.78 1.86-2.7 2.76-4.98 2.4-2.04-.3-3.3-1.86-3.48-4.14-.24-2.4.9-4.32 2.88-5.04 2.22-.78 4.38-.06 5.7 1.98z"/>
    <path fill="#000" d="M15 0C6.72 0 0 6.72 0 15c0 8.28 6.72 15 15 15 8.28 0 15-6.72 15-15 0-8.28-6.72-15-15-15zm0 27.42C8.22 27.42 2.46 21.66 2.52 15 2.58 8.22 8.22 2.52 15 2.52c6.84-.06 12.48 5.64 12.48 12.54 0 6.78-5.58 12.36-12.48 12.36zM52.74 17.52c-.66.06-1.08.06-1.68.06v7.26H46.2v-7.26c-.6-.06-1.08-.06-1.74-.12v-1.92-3.96c0-1.02.3-1.32 1.32-1.38 1.86-.06 3.78 0 5.64 0 .9 0 1.26.3 1.32 1.14v6.18zM46.44 7.44c0-1.44.72-2.16 2.16-2.16 1.44 0 2.16.78 2.16 2.22 0 1.38-.78 2.1-2.1 2.16-1.44-.06-2.22-.84-2.22-2.22z"/>
    <path fill="#000" d="M48.48 30c8.28 0 15-6.72 15-15 0-8.28-6.72-15-15-15-8.28 0-15 6.72-15 15 0 8.28 6.72 15 15 15zm.24-27.36c6.84.06 12.36 5.64 12.42 12.48 0 7.8-6.84 12.72-12.54 12.42-6 .24-12.42-5.1-12.48-12.42 0-6.78 5.82-12.54 12.6-12.48zM81.96 0c-8.28 0-15 6.72-15 15 0 8.28 6.72 15 15 15 8.28 0 15-6.72 15-15 0-8.28-6.72-15-15-15zm-4.98 26.28c-6.54-2.88-9-10.02-6.84-15.42 4.38 1.92 8.64 3.84 12.96 5.76.6.24.78.66.72 1.26-.06.6-.42.96-.96 1.14-1.14.3-2.22.06-3.18-.48-.36-.18-.66-.42-.96-.66-.72.72-1.44 1.38-2.16 2.04 1.2 1.2 2.7 1.68 4.5 1.86V24h1.86c.06-.72.12-1.44.12-2.22 1.98-.42 3.48-1.26 4.14-3.42 1.92.84 3.72 1.62 5.52 2.46-3.12 5.82-10.08 7.98-15.72 5.46zm10.8-10.92c-2.22-.96-4.44-1.98-6.6-2.94-.36-.18-.84-.24-.78-.78.06-.6.48-.78 1.02-.9 1.2-.3 2.28.12 3.36.78.66-.66 1.26-1.32 1.98-2.1-.96-.9-2.22-1.26-3.6-1.5-.06-.72-.12-1.5-.18-2.28h-1.74v2.22c-1.74.3-3.24.9-3.96 2.76-1.92-.84-3.72-1.68-5.58-2.46 2.52-4.74 9.18-7.32 15.06-4.8 6.3 2.7 8.76 9.42 7.08 14.64-2.04-.84-4.08-1.74-6.06-2.64zM112.5 17.4c.54 1.92 1.26 2.52 2.94 2.64 1.68.12 2.94-.6 3.54-2.28.72-1.98.72-3.96-.12-5.88-.6-1.38-1.74-1.92-3.42-1.74-1.56.18-2.28.78-2.76 2.46.3.06.54.12.9.24-1.02 1.02-1.98 1.92-3 2.88-.9-.9-1.86-1.86-2.88-2.94.84 0 1.14-.3 1.32-1.02.78-3 3.12-4.74 6.18-4.86 5.46-.24 8.46 3.9 8.16 8.82-.12 2.22-.9 4.14-2.58 5.64-2.16 1.98-5.7 2.58-8.4 1.38-2.16-.96-3.42-2.82-3.66-5.34h3.78z"/>
    <path fill="#000" d="M115.44 0c-8.28 0-15 6.72-15 15 0 8.28 6.72 15 15 15 8.28 0 15-6.72 15-15 0-8.28-6.72-15-15-15zm.24 27.36c-6.78.06-12.66-5.7-12.6-12.42.06-6.66 5.7-12.6 12.42-12.48 6.96 0 12.48 5.46 12.54 12.42.12 6.72-5.58 12.48-12.36 12.48z"/>
</svg>
