<svg xmlns="http://www.w3.org/2000/svg" width="150" height="49" fill="none" viewBox="0 0 150 49">
    <path fill="#000" d="M18.932 34.729c-.474.68-1.01 1.279-1.67 1.773-.599.475-1.362.867-2.248 1.238-.887.35-1.96.536-3.218.536-3.691 0-6.578-1.196-8.661-3.568C1.052 32.337 0 28.934 0 24.541c0-2.041.247-3.898.742-5.547.495-1.67 1.258-3.094 2.29-4.31 1.01-1.217 2.31-2.145 3.897-2.826 1.568-.66 3.424-.99 5.569-.99.494 0 1.03.062 1.608.207.578.144 1.134.35 1.691.598a7.883 7.883 0 0 1 1.588.948c.495.371.928.804 1.279 1.258V.577H24.5V37.74h-5.568v-3.011zm-6.434-18.87c-1.135 0-2.125.248-2.95.722-.825.474-1.484 1.134-2.02 1.959a9.14 9.14 0 0 0-1.156 2.825 14.177 14.177 0 0 0-.37 3.238c0 1.114.123 2.186.37 3.217.248 1.031.64 1.96 1.155 2.743a5.94 5.94 0 0 0 2.021 1.897c.825.475 1.815.722 2.95.722 1.072 0 2-.247 2.784-.722a6.236 6.236 0 0 0 1.959-1.856 8.013 8.013 0 0 0 1.155-2.516c.247-.928.37-1.856.37-2.784V24.17a14.184 14.184 0 0 0-.453-3.114 9.445 9.445 0 0 0-1.155-2.66 5.763 5.763 0 0 0-1.938-1.856c-.763-.454-1.67-.681-2.723-.681zM54.073 28.996c-.35 1.712-.887 3.155-1.608 4.351-.722 1.176-1.588 2.145-2.62 2.867-1.03.742-2.206 1.258-3.485 1.588-1.278.33-2.66.474-4.124.474-2.228 0-4.125-.35-5.713-1.052-1.588-.7-2.908-1.65-3.939-2.866-1.031-1.217-1.794-2.66-2.289-4.31-.474-1.67-.722-3.486-.722-5.445 0-2.33.31-4.351.908-6.063.598-1.712 1.464-3.135 2.557-4.269 1.093-1.134 2.413-1.96 3.939-2.516 1.547-.557 3.258-.825 5.156-.825 1.794 0 3.423.289 4.887.866a10.136 10.136 0 0 1 3.774 2.558c1.052 1.134 1.877 2.536 2.434 4.227.577 1.691.866 3.671.866 5.919v1.877H35.616a12.8 12.8 0 0 0 .556 2.619c.269.825.66 1.547 1.176 2.165.516.619 1.175 1.114 1.96 1.485.783.35 1.752.536 2.886.536 3.032 0 4.93-1.402 5.692-4.186h6.187zm-6.228-7.507a6.97 6.97 0 0 0-.536-2.145 6.228 6.228 0 0 0-1.155-1.794c-.474-.515-1.072-.928-1.753-1.237-.68-.31-1.444-.454-2.31-.454-.969 0-1.815.165-2.578.474-.742.33-1.402.743-1.938 1.258a5.823 5.823 0 0 0-1.279 1.794 6.47 6.47 0 0 0-.598 2.083h12.147v.021zM63.663 30.336c.103.928.618 1.63 1.526 2.124.907.495 1.96.722 3.135.722.495 0 1.01-.041 1.526-.144.515-.083.99-.268 1.402-.516a3.088 3.088 0 0 0 1.01-.99c.269-.412.413-.928.413-1.526 0-.495-.124-.928-.412-1.258a3.003 3.003 0 0 0-1.094-.825 9.437 9.437 0 0 0-1.629-.536c-.618-.144-1.299-.268-2.02-.371-1.114-.206-2.228-.454-3.362-.701-1.135-.248-2.145-.64-3.032-1.176a6.406 6.406 0 0 1-2.206-2.248c-.578-.969-.867-2.247-.867-3.856 0-1.423.269-2.66.805-3.67a7.464 7.464 0 0 1 2.144-2.517c.887-.66 1.939-1.134 3.135-1.444 1.196-.309 2.454-.453 3.774-.453 2.743 0 5.032.66 6.806 1.959 1.794 1.3 2.701 3.217 2.743 5.712h-5.527c-.145-.783-.62-1.443-1.423-1.959a4.839 4.839 0 0 0-2.66-.783c-1.032 0-1.96.226-2.785.7-.825.475-1.237 1.115-1.237 1.94 0 .577.144 1.051.453 1.422.31.372.702.68 1.217.949a7.443 7.443 0 0 0 1.774.598c.68.144 1.381.268 2.083.371a44.55 44.55 0 0 1 3.3.68c1.092.269 2.062.681 2.928 1.259.866.577 1.547 1.36 2.083 2.35.536 1.011.804 2.331.804 3.96 0 1.547-.31 2.826-.907 3.898a7.483 7.483 0 0 1-2.393 2.557 9.962 9.962 0 0 1-3.3 1.361 16.62 16.62 0 0 1-3.588.392c-1.464 0-2.846-.144-4.165-.453-1.3-.31-2.434-.784-3.403-1.423a7.238 7.238 0 0 1-2.33-2.475c-.599-1.01-.888-2.207-.888-3.588h6.167v-.042zM83.399 6.372V0h6.228v6.372H83.4zm.165 31.368V11.404h5.898V37.74h-5.898zM113.426 34.894a8.193 8.193 0 0 1-1.671 1.712c-.536.433-1.216.804-2.041 1.154-.825.33-1.774.516-2.846.516-2.104 0-3.939-.33-5.465-1.01-1.547-.681-2.805-1.63-3.816-2.846-1.01-1.217-1.732-2.681-2.206-4.372-.475-1.691-.701-3.548-.701-5.548 0-4.33 1.093-7.672 3.279-10.064 2.186-2.372 5.155-3.568 8.909-3.568 1.134 0 2.124.165 2.949.516.825.33 1.526.701 2.083 1.093.639.474 1.196.99 1.67 1.547v-2.62h5.692v26.81c0 1.712-.289 3.238-.866 4.558-.577 1.32-1.382 2.454-2.413 3.382-1.031.928-2.268 1.63-3.691 2.124-1.423.474-2.991.722-4.661.722-1.794 0-3.403-.165-4.847-.474-1.443-.33-2.701-.805-3.753-1.485-1.052-.66-1.877-1.526-2.433-2.578-.578-1.052-.867-2.33-.867-3.836h6.332c.144.887.66 1.63 1.546 2.227.887.598 2.063.887 3.486.887 1.959 0 3.506-.495 4.64-1.464 1.134-.99 1.691-2.392 1.691-4.207v-3.176zm-6.166-19.035c-1.073 0-2.021.227-2.846.68a5.957 5.957 0 0 0-2.042 1.815c-.536.763-.949 1.692-1.217 2.764-.268 1.072-.392 2.227-.392 3.423 0 1.258.124 2.392.392 3.424.268 1.03.681 1.959 1.238 2.742.556.784 1.237 1.403 2.062 1.815.825.433 1.773.64 2.846.64 1.114 0 2.062-.248 2.846-.743.784-.495 1.423-1.155 1.938-1.98a9.21 9.21 0 0 0 1.093-2.784c.227-1.03.351-2.083.351-3.114 0-1.03-.124-2.083-.351-3.114a9.21 9.21 0 0 0-1.093-2.784c-.495-.825-1.154-1.485-1.959-2.02-.804-.496-1.753-.764-2.866-.764zM131.12 11.405v2.577a7.011 7.011 0 0 1 3.135-2.392c1.279-.474 2.495-.722 3.671-.722 3.403 0 6.104.763 8.105 2.31 2 1.547 3.011 4 3.011 7.404V37.74h-5.898V20.912c0-1.609-.578-2.846-1.712-3.733-1.134-.866-2.537-1.32-4.187-1.32-1.711 0-3.134.495-4.227 1.505-1.114 1.011-1.671 2.393-1.671 4.187V37.74h-5.898V11.404h5.671z"/>
</svg>
