<svg xmlns="http://www.w3.org/2000/svg" width="141" height="50" fill="none" viewBox="0 0 141 50">
    <path fill="#fff" d="M47.692 49.403c-.85 0-1.612-.164-2.268-.507-.716-.373-1.283-.94-1.716-1.701-.582-1.06-.836-2.522-.836-4.88 0-5.386-.417-8.862-1.223-10.325-.328-.596-.582-.82-2.059-.85v18.188h-3.954V27.216h3.626c.94 0 2.044.03 3.073.403 1.209.447 2.134 1.253 2.82 2.491 1.194 2.164 1.701 5.82 1.701 12.19 0 1.925.209 2.716.388 3.045.015.044.045.074.045.074s.074.045.403.045c.238 0 .238 0 .328-.164.268-.537.388-1.552.388-3.014 0-6.371.507-10.027 1.7-12.19.642-1.21 1.597-2.06 2.806-2.492 1.059-.373 2.148-.403 3.073-.403h3.626v22.098h-3.954v-18.16c-1.388.03-1.701.225-2.06.851-.805 1.448-1.193 4.82-1.193 10.326 0 2.163-.238 3.61-.76 4.67-.374.776-.926 1.403-1.597 1.79-.686.418-1.477.627-2.357.627zM139.405 13.936h-10.474V0h3.506v10.43h6.983v3.506h-.015zm-9.594-.895h8.684v-1.716h-6.983V.895h-1.716v12.146h.015zM135.153 50h-6.655V36.064h6.207c3.208 0 4.655 2.268 4.655 4.387 0 .82-.224 1.596-.641 2.297a4.355 4.355 0 0 1 1.104 2.91c0 1.134-.418 2.208-1.179 3-.865.88-2.074 1.342-3.491 1.342zm-5.759-.895h5.759c2.596 0 3.789-1.79 3.789-3.462 0-.97-.388-1.895-1.089-2.522l-.298-.268.239-.328a3.493 3.493 0 0 0 .671-2.09c0-2.387-1.955-3.49-3.76-3.49h-5.311v12.16zm5.759-1.716h-4.044v-3.507h4.044c1.402 0 2.118.88 2.118 1.746 0 .88-.731 1.76-2.118 1.76zm-3.148-.895h3.148c.85 0 1.223-.448 1.223-.85 0-.404-.388-.851-1.223-.851h-3.148v1.7zm2.805-4.313h-3.701v-3.506h3.596c1.388 0 2.104.88 2.104 1.746 0 1.104-1 1.716-1.999 1.76zm-2.805-.895h2.79c.775-.03 1.119-.447 1.119-.85 0-.418-.373-.85-1.209-.85h-2.7v1.7zM41.918 8.982c0-5.505 3.58-8.982 9.175-8.982 5.595 0 8.788 3.029 8.788 8.221v.254h-4.177v-.313c0-2.656-1.582-4.432-4.61-4.432-3.134 0-4.999 2.283-4.999 5.073v5.446c0 3.044 1.746 5.059 4.998 5.059 3.328 0 4.61-1.612 4.61-4.268v-.223h-5.37V11.13h9.548v3.67c0 5.283-3.073 8.222-8.788 8.222-5.445 0-9.175-3.104-9.175-8.982V8.982zM74.846.447l6.58 22.143h-4.297L75.8 17.65H67.64l-1.328 4.939h-4.297L68.132.447h6.714zm-.045 13.414l-3.133-9.937h-.373L68.61 13.86h6.192zM83.53 8.982C83.53 3.477 87.11 0 92.704 0c5.595 0 8.788 3.029 8.788 8.221v.254h-4.177v-.313c0-2.656-1.582-4.432-4.61-4.432-3.134 0-4.999 2.283-4.999 5.058v5.447c0 3.043 1.746 5.058 4.998 5.058 3.327 0 4.61-1.612 4.61-4.268v-.223h-5.37V11.13h9.548v3.67c0 5.283-3.073 8.222-8.788 8.222-5.445 0-9.175-3.104-9.175-8.982V8.982zM121.725.447v3.79h-13.011V9.52h12.13v3.79h-12.13v5.476h13.205v3.79h-17.382V.447h17.188zM17.195.447v3.79H4.185V9.52h12.13v3.79H4.185v5.476h13.204v3.79H.007V.447h17.188zM80.202 27.246v3.79h-13.01v5.282h12.13v3.79h-12.13v5.475h13.204v3.805H63.03V27.246h17.173zM122.113 27.425v3.79h-6.699v18.337h-4.178V31.215h-6.699v-3.79h17.576zM28.11 40.472v-3.954H0v3.954h28.11zM101.448 27.425h-3.953v18.233l-.09-.015c-.955-.134-1.567-.701-1.984-1.835-.493-1.328-.642-3.148-.806-5.088l-.03-.343c-.194-2.522-.403-5.118-1.328-7.177-.552-1.209-1.283-2.104-2.238-2.73-.91-.628-2.074-.97-3.461-1.045H83.44v21.963h3.954V31.14l.104.015c.522.06.97.209 1.313.462.403.329.731.791 1.015 1.463.522 1.372.641 3.238.776 5.222l.014.269c.135 2.238.284 5.028 1.224 7.117.552 1.208 1.268 2.074 2.193 2.686.91.581 2.014.925 3.282 1h4.133v-21.95zM38.65.626h-3.954v18.233l-.09-.015c-.954-.134-1.566-.7-1.984-1.835-.492-1.328-.641-3.148-.805-5.088l-.03-.343c-.194-2.522-.403-5.118-1.328-7.177-.552-1.209-1.283-2.104-2.238-2.73-.925-.627-2.089-.97-3.461-1.045h-4.118V22.59h3.954V4.34l.104.015c.522.06.97.21 1.313.463.403.328.73.79 1.014 1.462.523 1.373.642 3.238.776 5.222l.015.269c.134 2.238.284 5.028 1.224 7.117.552 1.209 1.268 2.074 2.193 2.686.91.582 2.014.925 3.282 1h4.133V.626zM140.957 32.035h-3.596l-.97-2.64h-4.476l-.97 2.64h-3.596l5.163-14.07h3.267l5.178 14.07zm-2.97-.895h1.686l-4.505-12.28h-2.015l-4.505 12.28h1.685l.97-2.641h5.715l.969 2.64zm-1.611-4.372h-4.446l2.223-6.058 2.223 6.058zm-3.163-.895h1.88l-.94-2.567-.94 2.567z"/>
</svg>
