<?xml version="1.0" encoding="utf-8"?>
<!-- Generator: Adobe Illustrator 22.0.0, SVG Export Plug-In . SVG Version: 6.00 Build 0)  -->
<svg version="1.1" id="Layer_1" xmlns="http://www.w3.org/2000/svg" xmlns:xlink="http://www.w3.org/1999/xlink" x="0px" y="0px"
	 viewBox="0 0 336 139.5" style="enable-background:new 0 0 336 139.5;" xml:space="preserve">
<path d="M114.4,76.8c0-0.9,0-1.5,0-2.1c0.3-0.1,0.5-0.3,0.7-0.3c4.4-0.5,4.4-0.5,4.4-4.8c0-5.5,0.1-10.9,0-16.4
	c-0.1-7.6-4.2-10.2-11.2-7.2c-1.5,0.6-2.9,1.5-4.5,2.4c0,1.9,0,3.7,0,5.6c0,5.4,0,10.8,0,16.2c0,3.9,0.2,4.1,4.1,4.3
	c0.4,0,0.7,0.1,1.3,0.2c0.1,0.7,0.1,1.4,0.2,2.3c-6,0-11.8,0-17.8,0c-0.1-0.7-0.1-1.4-0.2-2.1c0.5-0.2,0.7-0.3,1-0.3
	c4.2-0.3,4.2-0.3,4.2-4.5c0-5.4,0-10.8,0-16.2c-0.1-8.3-4.7-11.1-12-7.3c-1.2,0.6-2.3,1.3-3.6,2c0,2.7,0,5.4,0,8c0,4.7,0,9.3,0,14
	c0,3.7,0.2,3.8,3.8,4c0.4,0,0.7,0.1,1.3,0.2c0.1,0.7,0.1,1.3,0.2,2.3c-6.1,0-11.9,0-17.9,0c0-0.7,0-1.4,0-2.2
	c1.7-0.3,3.3-0.5,5.1-0.8c0.1-1.2,0.3-2.1,0.3-3.1c0-6.5,0-13,0-19.5c0-2.5-0.5-4.7-3.1-5.8c-0.6-0.3-0.9-1-1.7-2
	c3.9-1.4,7.4-2.6,11.4-4c0.3,1.9,0.5,3.5,0.8,5.5c0.7-0.4,1.3-0.7,1.8-1.1c2.9-2,5.9-3.7,9.5-4c4.7-0.5,8.7,0.8,10.7,5.7
	c1.9-1.2,3.4-2.5,5.2-3.3c2.5-1.1,5.1-2.2,7.7-2.4c6-0.4,9.9,3.1,10.3,9.1c0.3,5.4,0.2,10.8,0.2,16.2c0,1.7,0,3.4,0,5.1
	c0,3.7,0.3,3.9,4,4.2c0.3,0,0.6,0.1,1.1,0.2c0,0.7,0.1,1.4,0.2,2.3C125.9,76.8,120.3,76.8,114.4,76.8z"/>
<path d="M36.1,23.7c0,7.3,0,14.5,0,21.7c4.3,0,8.5,0.2,12.6-0.1c2.3-0.2,3.2-2.3,3.7-4.4c0.2-0.8,0.8-1.5,1.2-2.2
	c0.3,0.1,0.6,0.2,0.9,0.3c0,5.9,0,11.8,0,18c-0.3,0.1-0.9,0.2-1.5,0.4c-0.2-0.6-0.3-0.9-0.4-1.3c-0.6-5.5-1.6-6.3-7.1-6.3
	c-3.1,0-6.2,0-9.5,0c0,5.1,0,9.8,0,14.6c0,1.5,0.1,2.9,0.3,4.4c0.3,3.1,1.4,4.7,4.4,4.8c4.8,0.1,9.6,0,14.3-0.6
	c3.9-0.5,5.9-3.6,7.4-7c0.3-0.7,0.6-1.3,1-2.1c0.7,0.1,1.3,0.3,2.3,0.4c-1.1,4.3-2.2,8.4-3.3,12.6c-14.1,0-28.1,0-42.2,0
	c-0.1-0.8-0.1-1.5-0.2-2.3c1.1-0.1,1.9-0.2,2.8-0.3c3.4-0.4,4.5-1.5,4.7-5c0.1-2.4,0.1-4.9,0.1-7.3c0-11.1,0-22.1-0.1-33.2
	c0-4.4-0.6-4.9-5.1-5.5c-0.5-0.1-1-0.1-1.5-0.2c-0.2,0-0.4-0.2-0.8-0.4c0-0.6-0.1-1.3-0.1-2.2c13.3,0,26.4,0,39.7,0
	c0,4.2,0,8.3,0,12.4c-0.2,0.1-0.5,0.3-0.7,0.4c-0.5-0.5-1.4-0.9-1.5-1.5c-1.1-5.9-5-8.2-10.6-8.2C43.2,23.6,39.8,23.7,36.1,23.7z"/>
<path d="M290.2,48.2c0,8.3,0,16,0,23.7c0,1.5,0.9,2.3,2.4,2.4c0.9,0,1.7,0.1,2.8,0.1c0.1,0.8,0.1,1.5,0.2,2.4c-5.9,0-11.6,0-17.6,0
	c0-0.8,0-1.5,0-2.2c1.7-0.3,3.2-0.5,4.7-0.8c0.2-0.8,0.3-1.3,0.3-1.8c0-7.2,0-14.5,0-21.7c0-2-1.1-3.1-2.8-3.8
	c-1.1-0.5-2.2-1.1-1.5-2.8c3.5-1.3,7-2.5,11-4c0.2,1.9,0.4,3.5,0.6,5.5c1.4-0.9,2.6-1.7,3.7-2.4c3.6-2.2,7.5-3.6,11.8-2.8
	c4.4,0.8,7.2,4.3,7.3,9.3c0.2,7,0.2,14,0.2,21c0,3.9,0,3.9,3.9,4.1c0.3,0,0.6,0.1,1.1,0.2c0,0.7,0,1.5,0,2.4c-5.8,0-11.4,0-17.3,0
	c0-0.8-0.1-1.5-0.1-2.3c1.6-0.2,2.9-0.4,4.6-0.6c0.1-1.1,0.4-2.2,0.4-3.2c0-6.3,0-12.7,0-19c0-5.2-3.5-8.1-8.6-6.7
	C295.1,45.7,292.7,47.1,290.2,48.2z"/>
<path d="M273,58.8c0,10.7-8.5,19.5-18.8,19.5c-11.3,0-19.8-8.3-19.8-19.2c0.1-11,8.3-19.5,19-19.4C264.9,39.7,273,47.7,273,58.8z
	 M264.9,59.9c0.1-4.6-1.8-10.6-4.3-13.7c-4.3-5.1-10.7-5-14.6,0.1c-5.3,6.9-4.3,20.5,1.8,26.5c3.9,3.8,9.8,3.5,13.2-0.7
	C263.9,68.6,264.8,64.3,264.9,59.9z"/>
<path d="M143.2,55c-1.5,5.6,1.1,13.1,5.6,16c6.3,4.1,11.3,0.8,16-3.3c0.3,0.1,0.5,0,0.7,0.1c0.3,0.3,0.6,0.6,0.8,0.9
	c-2.6,5.5-9.5,9.7-15.5,9.5c-6.6-0.2-11.3-3.7-13.8-10.2c-3.1-8.1-1-18.6,4.9-24c6.9-6.4,18.2-5.4,22.5,2.2c1.5,2.6,2.1,5.3,1.2,8.8
	c-3.8,0-7.6,0-11.4,0C150.6,55,146.9,55,143.2,55z M158.3,51.4c0.6-2.9,0-5.3-2.1-7c-2.4-2-5.3-1.9-7.9-0.5c-3,1.5-4.5,4.2-4.9,7.5
	C148.5,51.4,153.4,51.4,158.3,51.4z"/>
<path d="M203.3,66c0.7-0.2,1.2-0.4,1.8-0.6c0.5,1.3,0.9,2.5,1.4,3.6c1.9,4.5,6,6.7,10.5,5.8c3.8-0.7,5.8-5.2,3.3-8.2
	c-1.5-1.8-3.9-3-6-4.3c-1.8-1.1-3.8-1.9-5.6-3c-3.9-2.5-5.4-6.2-4.6-10.7c0.8-4.5,3.8-7.1,8-8.3c4.8-1.4,9.3-0.4,14,1.8
	c0.2,2.7,0.4,5.4,0.6,8.5c-0.9,0.1-1.5,0.2-2.2,0.2c-0.5-1.2-0.8-2.3-1.2-3.3c-1.7-3.9-6.2-5.7-10.2-4c-3.5,1.5-4.5,5.3-1.8,7.9
	c1.9,1.8,4.4,2.8,6.7,4.1c1.4,0.8,2.9,1.4,4.4,2.1c3.9,1.9,6.1,5.1,6,9.5c-0.1,4.5-2.5,7.8-6.5,9.5c-5.9,2.7-11.8,1.9-17.7-1.3
	C203.9,72.4,203.6,69.3,203.3,66z"/>
<path d="M172.5,44.5c3.4-1.6,6.8-3.3,10.8-5.2c0.2,2.8,0.3,5,0.4,7.8c1-1.3,1.6-2.1,2.2-2.8c1.7-2.1,3.7-3.8,6.4-4.4
	c3.4-0.8,6.2,1.3,6.2,4.5c0,3.5-3,5.3-6.1,3.8c-4.8-2.4-8.6,0-8.6,5.5c0,5.8,0,11.7,0,17.5c0,2.7,0.5,3.2,3.3,3.2c1.5,0,3.1,0,4.8,0
	c0,1,0,1.6,0,2.5c-7,0-13.9,0-21,0c-0.1-0.7-0.2-1.4-0.3-2.4c1.3-0.1,2.4-0.2,3.4-0.2c1.7,0,2.7-0.8,2.7-2.5
	c0-7.3,0.1-14.6-0.1-21.9c0-1-1.5-2.1-2.4-3.1c-0.6-0.6-1.3-1-2-1.5C172.3,45,172.4,44.7,172.5,44.5z"/>
<path d="M96.4,109.9c-0.1-6.5,4.4-11.1,10.8-11.2c6.4-0.1,11.1,4.6,11.1,11.2c0,6.3-4.6,11-11,11.1
	C101.1,121.1,96.4,116.4,96.4,109.9z M115.6,110.1c0.2-5-3.2-8.8-8.1-8.9c-4.9-0.2-8.5,3.3-8.7,8.3c-0.2,5.1,3.2,8.9,8.2,9.1
	C111.8,118.8,115.5,115.2,115.6,110.1z"/>
<path d="M241.2,117.3c0-2,0-3.9,0-6c-1.5-0.1-3-0.2-4.5-0.3c0-0.7,0-1.3,0-2.1c2.4,0,4.5,0,6.9,0c0,3.4,0,6.6,0,9.8
	c-3.9,3.5-12.4,2.9-15.9-1.2c-4.1-4.8-3.6-12.6,1-16.4c4.4-3.6,11.5-3.3,14.7,0.8c-0.4,0.5-0.9,1-1.3,1.5c-6.4-3.1-10.1-2.8-13,1
	c-2.3,3.1-2.1,8.4,0.4,11.4C232,118.8,237.2,119.5,241.2,117.3z"/>
<polygon points="197.4,118 207.8,118 207.8,120.3 194.6,120.3 194.6,99.5 207.3,99.5 207.4,101.6 197.3,101.6 197.3,108.2 
	207,108.3 207.1,110.6 197.4,110.6 197.4,118 "/>
<polygon points="266.2,118 276.6,118 276.6,120.3 263.4,120.3 263.4,99.5 276.1,99.5 276.2,101.6 266.2,101.6 266.2,108.2 
	275.8,108.3 275.9,110.6 266.2,110.6 266.2,118 "/>
<path d="M78.5,115.5c0.6,0.4,1.1,0.8,1.5,1.2c-1.5,3.4-5.4,4.9-10.1,4c-4.9-0.9-8.3-4.9-8.5-9.9c-0.3-6.1,2.6-10.3,8-11.7
	c4.2-1.1,8.4,0.2,10,3.3c-0.5,0.4-1,0.9-1.4,1.3c-5.2-4.4-9.8-2.5-12.3,0.5c-2.7,3.3-2.3,9,0.7,12C69.7,119.5,73.9,119.3,78.5,115.5
	z"/>
<polygon points="136.5,120.3 136.5,99.3 138.9,99.2 138.9,118 148.4,118 148.4,120.3 136.5,120.3 "/>
<polygon points="168,118.1 177.6,118.1 177.6,120.3 165.8,120.3 165.8,99.3 167.9,99.3 168,118.1 "/>
</svg>
