<svg xmlns="http://www.w3.org/2000/svg" width="169" height="70" fill="none" viewBox="0 0 169 70">
    <path fill="#000" d="M57.405 38.537v-1.053c.15-.05.251-.15.351-.15 2.208-.252 2.208-.252 2.208-2.41 0-2.76.05-5.47 0-8.229-.05-3.814-2.107-5.118-5.62-3.613-.752.301-1.455.753-2.258 1.204V35.227c0 1.956.1 2.057 2.058 2.157.2 0 .35.05.652.1.05.352.05.703.1 1.155h-8.932c-.05-.352-.05-.703-.1-1.054.25-.1.351-.15.502-.15 2.107-.151 2.107-.151 2.107-2.259v-8.129c-.05-4.165-2.358-5.57-6.021-3.663-.602.301-1.154.653-1.807 1.004V35.426c0 1.857.1 1.907 1.907 2.007.2 0 .351.05.653.1.05.352.05.653.1 1.155h-8.982v-1.104c.853-.15 1.656-.25 2.559-.402.05-.602.15-1.053.15-1.555v-9.785c0-1.254-.25-2.358-1.555-2.91-.301-.15-.452-.502-.853-1.004 1.957-.702 3.713-1.305 5.72-2.007.15.953.251 1.756.402 2.76.35-.201.652-.352.903-.552 1.455-1.004 2.96-1.857 4.767-2.007 2.358-.251 4.366.401 5.37 2.86.953-.602 1.705-1.255 2.608-1.656 1.255-.552 2.56-1.104 3.864-1.204 3.011-.201 4.968 1.555 5.169 4.566.15 2.71.1 5.42.1 8.129v2.56c0 1.856.15 1.956 2.007 2.107.15 0 .301.05.552.1 0 .351.05.702.1 1.154-3.01-.2-5.82-.2-8.78-.2zM18.115 11.892v10.89c2.157 0 4.265.1 6.322-.05 1.154-.101 1.606-1.155 1.857-2.209.1-.401.401-.753.602-1.104l.452.15v9.033c-.15.05-.452.1-.753.2-.1-.3-.15-.45-.2-.652-.302-2.76-.804-3.16-3.563-3.16h-4.767v7.325c0 .753.05 1.456.15 2.208.15 1.556.703 2.359 2.208 2.409 2.409.05 4.817 0 7.176-.301 1.957-.251 2.96-1.807 3.713-3.513.15-.351.3-.652.502-1.054.35.05.652.15 1.154.201-.552 2.158-1.104 4.215-1.656 6.323H10.136c-.05-.402-.05-.753-.1-1.154.552-.05.953-.1 1.405-.151 1.706-.2 2.258-.753 2.358-2.509.05-1.204.05-2.459.05-3.663 0-5.57 0-11.09-.05-16.66 0-2.207-.3-2.458-2.559-2.76-.25-.05-.502-.05-.752-.1-.1 0-.201-.1-.402-.2 0-.302-.05-.653-.05-1.104h19.921v6.222c-.1.05-.25.15-.351.2-.251-.25-.703-.451-.753-.752-.552-2.96-2.509-4.115-5.319-4.115-1.857 0-3.563.05-5.42.05zM145.62 24.186V36.08c0 .752.452 1.154 1.204 1.204.452 0 .853.05 1.405.05.051.401.051.753.101 1.204h-8.832v-1.104c.853-.15 1.606-.25 2.359-.401.1-.401.15-.652.15-.903v-10.89c0-1.003-.552-1.555-1.405-1.906-.552-.25-1.104-.552-.753-1.405 1.757-.652 3.513-1.254 5.52-2.007.101.953.201 1.756.301 2.76.703-.452 1.305-.853 1.857-1.204 1.806-1.105 3.763-1.807 5.921-1.406 2.208.402 3.613 2.158 3.663 4.667.1 3.513.1 7.025.1 10.538 0 1.957 0 1.957 1.957 2.057.151 0 .301.05.552.1v1.205h-8.681c0-.402-.05-.753-.05-1.154.803-.1 1.455-.201 2.308-.302.051-.551.201-1.103.201-1.605v-9.534c0-2.61-1.756-4.065-4.315-3.362-1.104.25-2.308.953-3.563 1.505zM136.989 29.505c0 5.37-4.265 9.785-9.434 9.785-5.67 0-9.935-4.165-9.935-9.634.05-5.52 4.165-9.785 9.534-9.735 5.771 0 9.835 4.014 9.835 9.584zm-4.064.552c.05-2.308-.904-5.319-2.158-6.874-2.158-2.56-5.369-2.51-7.326.05-2.66 3.462-2.158 10.286.903 13.297 1.957 1.907 4.918 1.756 6.624-.351 1.455-1.756 1.906-3.914 1.957-6.122zM71.857 27.598c-.753 2.81.552 6.574 2.81 8.03 3.161 2.056 5.67.4 8.028-1.657.151.05.251 0 .352.05.15.15.3.301.401.452-1.304 2.76-4.767 4.867-7.778 4.767-3.311-.1-5.67-1.857-6.924-5.118-1.556-4.065-.502-9.334 2.458-12.043 3.463-3.212 9.133-2.71 11.29 1.104.753 1.304 1.055 2.66.603 4.415H71.857zm7.577-1.806c.3-1.455 0-2.66-1.054-3.513-1.204-1.003-2.66-.953-3.964-.25-1.505.752-2.258 2.107-2.459 3.763h7.477zM102.014 33.118c.352-.1.602-.2.904-.3.25.651.451 1.254.702 1.806.953 2.258 3.011 3.362 5.269 2.91 1.907-.351 2.91-2.61 1.656-4.115-.753-.903-1.957-1.505-3.011-2.157-.903-.552-1.907-.954-2.81-1.506-1.957-1.254-2.71-3.11-2.308-5.369.401-2.258 1.907-3.563 4.014-4.165 2.409-.702 4.667-.2 7.025.903.1 1.355.201 2.71.301 4.266-.451.05-.752.1-1.104.1-.251-.602-.401-1.154-.602-1.656-.853-1.957-3.111-2.86-5.118-2.007-1.756.753-2.258 2.66-.903 3.964.953.903 2.208 1.405 3.362 2.057.702.402 1.455.703 2.208 1.054 1.956.954 3.06 2.56 3.01 4.767-.05 2.258-1.254 3.914-3.261 4.767-2.961 1.355-5.922.954-8.882-.652-.151-1.455-.301-3.01-.452-4.667zM86.559 22.33c1.706-.803 3.412-1.656 5.42-2.61.1 1.406.15 2.51.2 3.915.502-.653.803-1.054 1.104-1.405.853-1.054 1.857-1.907 3.212-2.208 1.706-.402 3.11.652 3.11 2.258 0 1.756-1.505 2.66-3.06 1.907-2.409-1.205-4.316 0-4.316 2.76v8.78c0 1.356.251 1.607 1.656 1.607h2.409v1.254H85.756c-.05-.351-.1-.702-.15-1.204.652-.05 1.204-.1 1.706-.1.853 0 1.355-.402 1.355-1.255 0-3.663.05-7.326-.05-10.99 0-.501-.753-1.053-1.205-1.555-.301-.3-.652-.502-1.004-.753.05-.15.1-.3.151-.401zM48.373 55.147c-.05-3.261 2.208-5.57 5.419-5.62 3.212-.05 5.57 2.308 5.57 5.62 0 3.162-2.308 5.52-5.52 5.57-3.11.05-5.47-2.308-5.47-5.57zm9.634.1c.1-2.508-1.606-4.415-4.064-4.465-2.46-.1-4.266 1.656-4.366 4.165-.1 2.559 1.606 4.465 4.115 4.566 2.408.1 4.265-1.706 4.315-4.265zM121.032 58.86v-3.01l-2.258-.151v-1.054h3.463v4.918c-1.957 1.756-6.223 1.455-7.979-.602-2.057-2.409-1.806-6.323.502-8.23 2.208-1.806 5.77-1.656 7.376.402-.201.25-.451.501-.652.752-3.212-1.555-5.068-1.405-6.523.502-1.155 1.556-1.054 4.215.2 5.72 1.255 1.506 3.864 1.857 5.871.753zM99.054 59.211h5.218v1.154h-6.623V49.928h6.372l.05 1.054h-5.068v3.312l4.868.05.05 1.154h-4.867v3.713zM133.577 59.211h5.219v1.154h-6.624V49.928h6.373l.05 1.054h-5.018v3.312l4.817.05.05 1.154h-4.867v3.713zM39.39 57.957c.302.2.553.401.753.602-.752 1.706-2.71 2.459-5.068 2.007-2.459-.451-4.165-2.458-4.265-4.967-.15-3.061 1.305-5.169 4.014-5.871 2.108-.552 4.215.1 5.018 1.656-.25.2-.502.451-.702.652-2.61-2.208-4.918-1.255-6.172.25-1.355 1.657-1.155 4.517.35 6.022 1.657 1.656 3.764 1.556 6.073-.35zM68.495 60.365V49.827l1.204-.05v9.434h4.767v1.154h-5.971zM84.301 59.262h4.817v1.104h-5.92V49.828h1.053l.05 9.434z"/>
</svg>
