<svg xmlns="http://www.w3.org/2000/svg" width="301" height="65" fill="none" viewBox="0 0 301 65">
    <path fill="#00AB9E" d="M249.395 1.21v61.986h12.74c0-6.953 5.656-12.599 12.622-12.599s12.621 5.646 12.621 12.6H300V1.21h-50.605zm25.362 36.788c-6.966 0-12.622-5.646-12.622-12.6 0-6.953 5.656-12.598 12.622-12.598s12.621 5.645 12.621 12.599c0 6.953-5.655 12.599-12.621 12.599z"/>
    <path fill="#F72923" d="M236.804 31.72c0-3.772-1.663-7.128-4.276-9.444-.208.178-.208-.178 0 0 2.613-2.316 4.276-5.672 4.276-9.443 0-6.949-5.642-12.59-12.591-12.59-6.949 0-12.591 5.641-12.591 12.59 0 3.742 1.634 7.097 4.247 9.413v.06c-2.613 2.316-4.247 5.671-4.247 9.413s1.634 7.097 4.247 9.413v.06c-2.613 2.316-4.247 5.672-4.247 9.413 0 6.949 5.642 12.591 12.591 12.591 6.949 0 12.591-5.642 12.591-12.59 0-3.772-1.663-7.128-4.276-9.444-.208.178-.208-.178 0 0 2.613-2.316 4.276-5.672 4.276-9.443z"/>
    <path fill="#F6A536" d="M170.117.06V0H151.09v63.196h19.027v-.06c16.53-.983 29.641-14.725 29.641-31.538 0-16.812-13.111-30.555-29.641-31.538zm5.292 47.337c0-7.303-8.473-15.799-15.757-15.799 7.284 0 15.757-8.496 15.757-15.799 0 7.303 8.473 15.8 15.757 15.8-7.254 0-15.757 8.495-15.757 15.798z"/>
    <path fill="#00AB9E" d="M138.014 12.833V.243H88.378v12.59h6.331v12.59h-6.331v12.591h6.331v12.591h-6.331v12.591h49.636v-12.59h-24.31V38.013h24.31v-12.59h-24.31V12.833h24.31z"/>
    <path fill="#F72923" d="M76 63.39H56.91l-.148-40.66-18.733 41.435-18.732-41.436-.178 40.66H0V17.752C0 11.7 3.003 6.155 8.058 2.876 13.142-.403 19.446-.91 24.917 1.565c2.616 1.192 4.965 3.1 6.78 5.514L38 22.282 44.333 7.08c1.814-2.414 4.133-4.352 6.78-5.514C56.582-.91 62.886-.433 67.97 2.876c5.055 3.25 8.058 8.824 8.058 14.875V63.39h-.03z"/>
</svg>
