<svg xmlns="http://www.w3.org/2000/svg" width="52" height="52" fill="none" viewBox="0 0 52 52">
    <path stroke="#000" stroke-miterlimit="10" stroke-width="2" d="M42.667 1H1v45.833h41.667V1z"/>
    <path stroke="#000" stroke-miterlimit="10" stroke-width="2" d="M42.667 5.167H51V51H9.333v-4.167M38.5 7.25H5.167M38.5 27.042H5.167M38.5 14.542H23.917M38.5 18.708H23.917M38.5 22.875H23.917M19.75 35.49H5.167M19.75 31.208H5.167M19.75 39.657H5.167"/>
    <path stroke="#000" stroke-miterlimit="10" stroke-width="2" d="M38.5 31.208H23.917v8.334H38.5v-8.334zM46.833 11.417h-4.166M46.833 31.208h-4.166M46.833 18.708h-4.097M46.833 22.875h-4.097M46.833 27.042h-4.097M46.833 43.708h-4.166M46.833 31.208h-4.097M46.833 35.375h-4.097M46.833 39.542h-4.097M19.75 14.542H5.167v8.333H19.75v-8.333z"/>
</svg>
