<svg xmlns="http://www.w3.org/2000/svg" width="312" height="322" fill="none" viewBox="0 0 312 322">
    <path stroke="#000" stroke-miterlimit="10" stroke-width="2" d="M133.657 242.947c34.435-12.856 9.246-60.603-20.466-58.709-15.524.988-24.439 15.971-23.422 30.493 1.642 23.01 23.787 30.895 43.888 28.216z"/>
    <path stroke="#000" stroke-miterlimit="10" stroke-width="2" d="M182.375 237.933c12.892-14.544 11.314-28.122-1.852-41.559-15.479-15.706-27.529-35.15-46.407-46.976-8.946-5.607-18.866-10.68-29.998-7.196-19.894 6.225-19.042 37.701-27.493 54.291-31.398 61.546 73.096 90.222 105.75 41.44z"/>
    <path stroke="#000" stroke-miterlimit="10" stroke-width="2" d="M217.194 232.851c1.114-19.777-8.967-31.73-21.039-45.962-7.576-8.933-12.202-19.736-20.008-28.236-14.756-16.038-40.711-25.899-59.377-37.152-22.355-13.49-34.802 2.842-39.468 25.385-2.512 12.075-3.357 23.967-7.657 35.662-3.18 8.57-9.527 15.144-12.839 23.243-7.894 19.441 11.155 37.645 24.079 50.369 34.286 34.019 116.278 24.668 136.309-23.309z"/>
    <path stroke="#000" stroke-miterlimit="10" stroke-width="2" d="M226.418 262.644c21.658-28.172 6.551-50.195-12.898-74.344-13.603-16.962-21.133-35.085-37.313-49.816-13.808-12.593-33.135-22.821-44.546-37.666-7.647-9.947-4.37-21.068-11.425-30.584-8.805-11.904-22.27-11.33-30.658.509-7.957 11.246-6.964 29.746-12.317 42.697-6.904 16.669-11.78 32.371-16.072 49.831-5.708 23.297-31.747 36.758-17.35 61.082 9.072 15.319 22.424 32.071 33.482 45.962 13.674 17.153 28.17 20.536 49.238 19.885 31.682-1.082 75.582-4.706 99.859-27.556z"/>
    <path stroke="#000" stroke-miterlimit="10" stroke-width="2" d="M254.727 268.967c10.495-19.384 16.217-40.3 2.219-59.09-9.892-13.259-24.959-22.286-32.654-37.225-6.265-12.127-8.862-22.249-18.799-32.586-11.909-12.384-26.795-20.978-39.236-32.689-21.27-20.05-20.025-59.392-53.03-62.94-33.727-3.626-43.626 31.194-47.955 56.93-3.562 21.246-11.715 48.482-22.29 67.765-14.391 26.137-41.542 28.45-14.788 55.234 14.765 14.712 24.188 30.161 34.108 48.593 19.618 36.382 57.208 30.645 92.746 29.439 36.171-1.135 74.086-4.412 99.679-33.431z"/>
    <path stroke="#000" stroke-miterlimit="10" stroke-width="2" d="M229.033 317.692c36.659-10.186 71.113-31.137 80.15-71.039 6.374-28.118-4.324-36.114-27.545-45.033-14.138-5.402-28.11-13.987-35.693-27.861-6.707-12.268-7.048-24.612-16.665-35.782-11.851-13.75-28.124-23.047-39.795-37.189-15.061-18.266-16.371-34.285-18.655-56.862-1.652-15.828-10.687-53.605-34.085-40.036-6.442 3.682-10.295 12.132-16.173 16.928-6.579 5.36-14.408 8.339-22.055 11.75-9.042 4.036-16.248 6.764-24.09 13.63-17.22 15.212-15.748 31.843-22.013 52.288-4.687 15.22-10.591 28.614-14.534 44.145-8.196 32.218-56.39 44.151-28.037 79.3 12.365 15.317 24.736 27.66 32.768 45.792 7.306 16.406 14.711 32.319 31.185 41.455 28.072 15.584 62.585.769 92.365 10.366 0 0 43.198 3.619 62.872-1.852z"/>
</svg>
