<svg xmlns="http://www.w3.org/2000/svg" width="103" height="83" fill="none" viewBox="0 0 103 83">
    <path stroke="#000" stroke-miterlimit="10" stroke-width="2" d="M50.01 35.675a9.002 9.002 0 1 0 0-18.005 9.002 9.002 0 0 0 0 18.005zM79.017 39.675H63.014V55.68h16.003V39.675zM23.005 57.68h20.004L33.007 37.674 23.005 57.679zM28.717 21.96l-5.645 5.646M23.072 21.96l5.645 5.646M54.723 45.966l-5.646 5.645M49.077 45.966l5.646 5.645M78.95 17.737l-5.645 5.646M73.305 17.737l5.645 5.646"/>
    <path stroke="#000" stroke-miterlimit="10" stroke-width="2" d="M95.02 71.682H7.003V7.668A6.66 6.66 0 0 1 13.67 1h74.683a6.66 6.66 0 0 1 6.668 6.668v64.014z"/>
    <path stroke="#000" stroke-miterlimit="10" stroke-width="2" d="M87.019 9.669H15.003V65.68H87.02V9.67zM101.022 71.682H1v4.112c0 3.246 3.112 5.89 6.935 5.89h86.13c3.845 0 6.935-2.644 6.935-5.89v-4.112h.022z"/>
    <path stroke="#000" stroke-miterlimit="10" stroke-width="2" d="M59.013 71.682H43.009v4.001h16.004v-4z"/>
</svg>
