<svg xmlns="http://www.w3.org/2000/svg" width="100" height="100" fill="none" viewBox="0 0 100 100">
    <path stroke="#000" stroke-miterlimit="10" stroke-width="2" d="M7.89 0v99.787M100 92.11H0M30.917 13.646H15.565v70.789h15.352V13.646zM52.026 46.055H36.674v38.38h15.352v-38.38zM73.134 30.704H57.782v53.731h15.352V30.704zM94.243 5.757H78.891v78.678h15.352V5.757z"/>
    <path stroke="#000" stroke-miterlimit="10" stroke-width="2" d="M23.24 27.079a3.838 3.838 0 1 0 0-7.676 3.838 3.838 0 0 0 0 7.676zM44.35 59.488a3.838 3.838 0 1 0 0-7.676 3.838 3.838 0 0 0 0 7.676zM65.458 44.136a3.838 3.838 0 1 0 0-7.675 3.838 3.838 0 0 0 0 7.675zM86.567 19.19a3.838 3.838 0 1 0 0-7.676 3.838 3.838 0 0 0 0 7.676zM25.16 26.866L42.43 53.73M63.54 42.218L46.268 53.73M84.648 17.27l-17.27 21.11"/>
</svg>
