<svg xmlns="http://www.w3.org/2000/svg" width="95" height="102" fill="none" viewBox="0 0 95 102">
    <path stroke="#000" stroke-miterlimit="10" stroke-width="2" d="M9.72 42.667l-8.333 25h8.334V76c0 6.898 5.602 12.5 12.5 12.5h8.333V101h45.833V76c10.116-7.593 16.667-19.7 16.667-33.333C93.054 19.657 74.397 1 51.388 1 28.378 1 9.72 19.657 9.72 42.667z"/>
    <path stroke="#000" stroke-miterlimit="10" stroke-width="2" d="M55.554 67.667h16.667V53.083a10.403 10.403 0 0 0 10.416-10.416c0-4.676-3.078-8.635-7.338-9.954a10.33 10.33 0 0 0 1.088-4.63 10.403 10.403 0 0 0-10.416-10.416c-1.667 0-3.241.393-4.63 1.088-1.32-4.26-5.278-7.338-9.953-7.338-4.676 0-8.635 3.079-9.954 7.338a10.33 10.33 0 0 0-4.63-1.088 10.403 10.403 0 0 0-10.417 10.416c0 1.667.394 3.241 1.088 4.63-4.259 1.32-7.338 5.278-7.338 9.954a10.403 10.403 0 0 0 10.417 10.416c3.403 0 6.435-1.643 8.334-4.166a10.423 10.423 0 0 0 8.333 4.166s8.333 0 8.333 8.334v6.25z"/>
    <path stroke="#000" stroke-miterlimit="30" stroke-width="2" d="M30.554 42.528c10.417.139 10.417-10.278 6.25-14.445 4.167 4.167 14.584 0 14.676-6.25-.092 6.25 10.324 10.417 14.49 6.25-4.166 4.167-2.082 14.584 6.32 14.584 0 0-8.403 0-8.403 8.333v50"/>
    <path stroke="#000" stroke-miterlimit="30" stroke-width="2" d="M45.138 34.333c4.42 0 6.25 3.125 6.25 6.25 0-3.125 1.828-6.25 6.25-6.25M57.638 43.176a7.237 7.237 0 0 1-6.25 3.611c-2.663 0-5-1.458-6.25-3.611"/>
</svg>
