<svg xmlns="http://www.w3.org/2000/svg" width="99" height="102" fill="none" viewBox="0 0 99 102">
    <path stroke="#000" stroke-miterlimit="10" stroke-width="2" d="M89.235 1H1v92.157h88.235V1z"/>
    <path stroke="#000" stroke-miterlimit="10" stroke-width="2" d="M89.235 8.843h7.843V101H16.686v-7.843M1 14.726h88.235M89.235 22.569h7.843M82.373 10.804a2.941 2.941 0 1 0 0-5.883 2.941 2.941 0 0 0 0 5.883zM12.765 53.941H51.98M59.824 53.941H79.43M51.98 61.784h27.451M59.824 69.627H79.43M44.137 77.47h35.294M12.765 61.784h31.743M12.765 69.627H51.98M12.765 77.47h24.27M12.765 85.314h29.869M30.412 46.098L18.647 34.333 30.412 22.57h-7.843L10.804 34.333l11.765 11.765h7.843z"/>
    <path stroke="#000" stroke-miterlimit="10" stroke-width="2" d="M59.824 46.098l11.764-11.765L59.824 22.57h7.843L79.43 34.333 67.667 46.098h-7.843zM44.137 46.098l7.843-23.53h-5.882l-7.843 23.53h5.882z"/>
</svg>
