<svg xmlns="http://www.w3.org/2000/svg" width="100" height="102" fill="none" viewBox="0 0 100 102">
    <circle cx="50" cy="50" r="50" fill="#F6A536"/>
    <path stroke="#000" stroke-miterlimit="10" stroke-width="2" d="M90.235 1H2v92.157h88.235V1z"/>
    <path stroke="#000" stroke-miterlimit="10" stroke-width="2" d="M90.235 8.843h7.843V101H17.686v-7.843M2 14.726h88.235M90.235 22.569h7.843M83.373 10.804a2.941 2.941 0 1 0 0-5.883 2.941 2.941 0 0 0 0 5.883zM13.765 53.941H52.98M60.824 53.941H80.43M52.98 61.784h27.451M60.824 69.627H80.43M45.137 77.47h35.294M13.765 61.784h31.743M13.765 69.627H52.98M13.765 77.47h24.27M13.765 85.314h29.869M31.412 46.098L19.647 34.333 31.412 22.57h-7.843L11.804 34.333l11.765 11.765h7.843z"/>
    <path stroke="#000" stroke-miterlimit="10" stroke-width="2" d="M60.824 46.098l11.764-11.765L60.824 22.57h7.843L80.43 34.333 68.667 46.098h-7.843zM45.137 46.098l7.843-23.53h-5.882l-7.843 23.53h5.882z"/>
</svg>
