<svg xmlns="http://www.w3.org/2000/svg" width="97" height="100" fill="none" viewBox="0 0 97 100">
    <path stroke="#000" stroke-miterlimit="10" stroke-width="2" d="M89.235 15.577H6.882v53.05h82.353v-53.05z"/>
    <path stroke="#000" stroke-miterlimit="10" stroke-width="2" d="M95.118 9.695H1v5.882h94.118V9.695zM95.118 68.736H1v5.883h94.118v-5.883zM48.277 74.728V100M48.168 0v9.804M63.963 98.148l-15.686-9.804M32.373 98.148l15.904-9.804M48.168 43.137c0 8.671-7.015 15.687-15.687 15.687-8.67 0-15.686-7.016-15.686-15.687 0-8.67 7.015-15.686 15.686-15.686v15.686h15.687z"/>
    <path stroke="#000" stroke-miterlimit="10" stroke-width="2" d="M50.129 39.216c0-7.582-6.144-13.726-13.726-13.726v13.726h13.726zM79.54 29.412H56.01M79.54 37.255H56.01M79.54 45.098H56.01M69.736 52.941H56.011"/>
</svg>
