<svg xmlns="http://www.w3.org/2000/svg" width="100" height="100" fill="none" viewBox="0 0 100 100">
    <circle cx="50" cy="50" r="50" fill="#00AB9E"/>
    <path stroke="#000" stroke-miterlimit="10" stroke-width="2" d="M91.235 15.577H8.882v53.05h82.353v-53.05z"/>
    <path stroke="#000" stroke-miterlimit="10" stroke-width="2" d="M97.118 9.695H3v5.882h94.118V9.695zM97.118 68.736H3v5.883h94.118v-5.883zM50.277 74.728V100M50.168 0v9.804M65.963 98.148l-15.686-9.804M34.373 98.148l15.904-9.804M50.168 43.137c0 8.671-7.015 15.687-15.687 15.687-8.67 0-15.686-7.016-15.686-15.687 0-8.67 7.015-15.686 15.686-15.686v15.686h15.687z"/>
    <path stroke="#000" stroke-miterlimit="10" stroke-width="2" d="M52.129 39.216c0-7.582-6.144-13.726-13.726-13.726v13.726h13.726zM81.54 29.412H58.01M81.54 37.255H58.01M81.54 45.098H58.01M71.736 52.941H58.011"/>
</svg>
