<svg xmlns="http://www.w3.org/2000/svg" width="201" height="149" fill="none" viewBox="0 0 201 149">
    <path stroke="#00AB9E" stroke-miterlimit="10" d="M99.328 75.094s-5.653 14.082 9.897 12.081c15.55-2.001 21.227-2.001 21.227-12.08 0-10.08-15.575-12.081-31.124 0z"/>
    <path stroke="#F72923" stroke-miterlimit="10" d="M74.545 94.198s18.389 12.081 32.532 10.079c14.143-2.001 38.209-16.12 39.615-30.201 1.407-14.082-9.897-24.162-25.472-22.16-15.575 2-33.964 6.04-46.7 20.122-12.685 14.118.025 22.16.025 22.16z"/>
    <path stroke="#F6A536" stroke-miterlimit="10" d="M46.26 88.157s2.839 12.081 12.736 14.082c9.898 2.002 12.736 8.042 12.736 8.042s4.246 8.078 22.634 6.077c18.389-2.002 43.861-6.041 52.352-18.121 8.491-12.08 12.737-26.163 11.33-42.282-1.407-16.12-14.143-24.162-31.125-22.16-17.007 2.037-80.663 22.16-80.663 54.362z"/>
    <path stroke="#00AB9E" stroke-miterlimit="10" d="M17.974 88.157s22.634 22.16 35.37 30.202c12.736 8.078 19.795 14.082 19.795 14.082s28.286 10.079 53.758-2.001c25.473-12.081 38.209-24.162 41.023-42.283 2.839-18.12 1.406-36.241 7.084-52.325 5.652-16.12 1.407-20.122-9.898-20.122-11.329 0-53.758 4.039-77.824 18.12-24.04 14.083-41.022 26.163-48.107 28.165-7.058 2.038-35.344 6.04-21.201 26.162z"/>
    <path stroke="#F72923" stroke-miterlimit="10" d="M5.288 89.25s27.698 27.071 43.273 36.969c15.575 9.897 24.22 17.211 24.22 17.211s34.603 12.335 65.779-2.438c31.176-14.773 46.751-29.51 50.229-51.743 3.478-22.233 1.713-44.356 8.67-64.078C204.364 5.449 199.172.5 185.311.5c-13.862 0-65.779 4.949-95.19 22.124C60.71 39.834 39.89 54.68 31.298 57.083c-8.67 2.583-43.35 7.532-26.01 32.166z"/>
</svg>
