<svg xmlns="http://www.w3.org/2000/svg" width="102" height="98" fill="none" viewBox="0 0 102 98">
    <path stroke="#fff" stroke-miterlimit="10" stroke-width="2" d="M16.143 44.429a7.53 7.53 0 0 1-7.572-7.572M13.143 36.857c2.5 0 4.571-2 4.571-4.571 0-2.572-2-4.572-4.571-4.572-2.572 0-4.572 2-4.572 4.572v4.571h4.572zM1 29.286a7.53 7.53 0 0 0 7.571 7.571"/>
    <path fill="#000" d="M93.571 66.643c-3.714 5.571-9.285 11-14.785 14.785v14.786H62.143v-8.143c-2.714.5-5.5.786-8.357.786-3.5 0-6.929-.428-10.215-1.143v8.572H26.93V79.928C18.929 73.644 14 64.644 14 54.644c0-14.786 10.929-27.429 26.214-32.215 1 3.43 4.286 6.715 7.286 9.072h10.714c3.143-2.5 6.572-6 7.429-9.572 2 .5 3.928 1.358 5.714 2.143 1.786-4.214 6.214-7.428 11.143-7.428v14.785c4.214 3.786 7.428 7.43 11.143 12.93"/>
    <path stroke="#fff" stroke-miterlimit="10" stroke-width="2" d="M93.571 66.643c-3.714 5.571-9.285 11-14.785 14.785v14.786H62.143v-8.143c-2.714.5-5.5.786-8.357.786-3.5 0-6.929-.428-10.215-1.143v8.572H26.93V79.928C18.929 73.644 14 64.644 14 54.644c0-14.786 10.929-27.429 26.214-32.215 1 3.43 4.286 6.715 7.286 9.072h10.714c3.143-2.5 6.572-6 7.429-9.572 2 .5 3.928 1.358 5.714 2.143 1.786-4.214 6.214-7.428 11.143-7.428v14.785c4.214 3.786 7.428 7.43 11.143 12.93"/>
    <path stroke="#fff" stroke-miterlimit="10" stroke-width="2" d="M82.5 44.429a3.689 3.689 0 0 0-3.714-3.715 3.689 3.689 0 0 0-3.715 3.715M52.857 75.928c9.192 0 16.643-7.45 16.643-16.642S62.05 42.643 52.857 42.643c-9.191 0-16.643 7.451-16.643 16.643 0 9.191 7.452 16.642 16.643 16.642z"/>
    <path fill="#000" stroke="#fff" stroke-miterlimit="10" stroke-width="2" d="M58.214 31.5H47.5c-3.572-2.857-7.572-7-7.572-11.143 0-4.071 3.286-7.428 7.429-7.428 2.214 0 4.214 1 5.571 2.5 1.358-1.572 3.358-2.5 5.572-2.5 4.071 0 7.428 3.285 7.428 7.428-.142 4.143-4.142 8.286-7.714 11.143z"/>
    <path stroke="#fff" stroke-miterlimit="10" stroke-width="2" d="M60.143 50.643h-9.857s-4.929 0-4.929 4.285c0 4.286 4.929 4.286 4.929 4.286h4.928s4.929 0 4.929 4.286-4.929 4.286-4.929 4.286h-9.928M52.714 46.286v25.928"/>
    <path fill="#000" stroke="#fff" stroke-miterlimit="10" stroke-width="2" d="M95.429 66.714c3.077 0 5.571-4.989 5.571-11.143 0-6.154-2.494-11.142-5.571-11.142-3.077 0-5.572 4.988-5.572 11.142 0 6.154 2.495 11.143 5.572 11.143z"/>
    <path stroke="#fff" stroke-miterlimit="10" stroke-width="2" d="M40.357 33.214C45.072 31.643 53 31.643 53 31.643s7.643 0 12.357 1.571M52.857 5.571V0M42.143 9.286L38 5.07M67.714 5.071l-4.143 4.215"/>
</svg>
