<svg xmlns="http://www.w3.org/2000/svg" width="52" height="44" fill="none" viewBox="0 0 52 44">
    <path stroke="#000" stroke-miterlimit="10" d="M50.905 17.269L25.903 33.937.901 17.269 25.903.6l25.002 16.668z"/>
    <path stroke="#000" stroke-miterlimit="10" d="M25.903 19.352a2.083 2.083 0 1 0 0-4.166 2.083 2.083 0 0 0 0 4.166zM9.236 22.477v15.511c8.334-.926 12.5 2.2 16.633 5.382 4.201-3.194 8.368-6.32 16.702-5.243v-15.65"/>
    <path stroke="#000" stroke-miterlimit="10" d="M27.987 17.269l20.835 1.041v9.376M46.738 36.02v-6.25a2.09 2.09 0 0 1 2.084-2.084 2.09 2.09 0 0 1 2.083 2.084v6.25M48.822 29.77v6.25"/>
</svg>
