<svg xmlns="http://www.w3.org/2000/svg" width="280" height="358" fill="none" viewBox="0 0 280 358">
    <path fill="#00AB9E" d="M127.796 55.014C92.579 57.133 44.231-34.863 5.59 14.66c-13.176 16.854.055 29.144 7.863 44.562 12.362 24.536 12.766 46.015 3.973 71.888C11.2 149.451 1.19 163.31 2.598 183.646c1.901 27.339 21.24 50.333 34.555 73.121 32.878 56.134 69.079 98.855 141.679 101.207 46.05 1.494 144.17-62.037 78.966-105.942-22.163-14.92-51.158-9.554-73.061-28.803-21.947-19.274-22.18-40.253-6.232-63.201 14.365-20.704 44.619-42.971 47.994-69.503 5.758-45.082-71.581-37.136-98.703-35.511z"/>
    <path fill="#F6A536" d="M97.38 65.13c-16.292-14.747-60.795-47.962-48.434-6.316 5.56 18.714 20.051 27.827 15.174 49.701-3.204 14.401-15.189 25.512-19.206 39.729-11.5 40.905 11.457 79.712 39.534 105.971 18.034 16.9 15.914 35.888 29.386 53.829 10.871 14.488 31.558 20.23 48.858 21.892 26.536 2.573 100.042-18.724 71.745-56.537-28.095-37.466-81.982-16.038-81.953-75.165.017-20.317 6.266-37.208 17.51-53.8 7.265-10.792 31.532-30.545 28.259-45.067C193.18 76.627 116.59 82.48 97.38 65.13z"/>
</svg>
