<svg xmlns="http://www.w3.org/2000/svg" width="1080" height="614" fill="none" viewBox="0 0 1080 614">
    <path fill="#F6A536" d="M1041.82 154.452c-56.916-36.909-127.633-48.712-188.948-76.819-37.209-17.003-67.316-45.21-104.725-61.414-65.415-28.407-131.831-13.103-200.448-2.1-90.221 14.403-182.043 19.504-272.465 13.503-52.112-3.401-118.928-29.808-169.44-10.003-68.817 27.007-78.62 103.925-83.12 166.64-7.002 98.023-58.714 304.273 22.405 378.791 83.62 76.818 272.465 49.711 371.889 28.006 132.632-28.907 196.047-71.917 253.661-187.245 50.412-100.924 152.836-110.326 252.36-122.129 62.715-7.301 231.151-54.413 118.831-127.23z"/>
</svg>
